# xmcd
#
# Track frame offsets:
#	150
#	14944
#	42810
#	68152
#	102224
#	138576
#	179721
#	209745
#	243984
#	283944
#
# Disc length: 4285 seconds
#
# Revision: 1
# Processed by: cddbd v1.5.2PL0 Copyright (c) Steve Scherf et al.
# Submitted via: audiograbber 1.83.01
#
DISCID=a210bb0a
DTITLE=Dr.Kucho - Belmondo Rules
DYEAR=2004
DGENRE=
TTITLE0=Belmondo Rulez (feat.Jodie)
TTITLE1=It Must Be Love
TTITLE2=Tonight (feat. Scuba)
TTITLE3=Piano (feat. Dark Sweet)
TTITLE4=Shadow Troopers
TTITLE5=Nosferatu
TTITLE6=La Luna (Tom D Remix)
TTITLE7=Belmondo Rules 2.0 (Original Mix)
TTITLE8=Tanzania (feat. Africanizm)
TTITLE9=La Luna (feat. Wally Lopez)
EXTD=
EXTT0=
EXTT1=
EXTT2=
EXTT3=
EXTT4=
EXTT5=
EXTT6=
EXTT7=
EXTT8=
EXTT9=
PLAYORDER=
